<svg xmlns="http://www.w3.org/2000/svg" height="800" width="800">
<path d="M731.236 338.844c-8.425-44.499-32.38-72.219-56.93-89.359-25.387-17.726-55.797-26.834-86.76-26.834H148.096c-15.288 0-21.143 14.925-21.2 22.401-.008.975.028 4.876.028 4.876s-.722 194.417.643 298.257c4.147 61.304 65.57 61.284 65.57 61.284s200.538-.588 296.713-1.185c4.509-.03 9.016-.515 13.39-1.61 54.759-13.7 60.424-64.57 59.838-92.927 110.066 6.114 187.722-71.552 168.157-174.903m-123.641 100.9c-23.472 2.933-42.544.73-42.544.73V296.749h28.882c19.088 0 37.504 7.948 49.959 22.413 8.768 10.184 15.783 24.518 15.783 44.316 0 48.399-24.939 67.467-52.08 76.267" fill="#fff"/><path d="M342.152 528.844c4.78 2.407 7.833-.584 7.833-.584s69.943-63.837 101.452-100.601c28.026-32.888 29.854-88.312-18.276-109.022C385.032 297.93 345.433 343 345.433 343c-34.338-37.768-86.31-35.856-110.349-10.296-24.037 25.56-15.643 69.43 2.29 93.845 16.833 22.92 90.823 88.867 102.038 100.02 0 0 .817.854 2.74 2.275" fill="#f14255"/>
</svg>